<?xml version="1.0" encoding="utf-8"?>
<!-- Generator: Adobe Illustrator 17.1.0, SVG Export Plug-In . SVG Version: 6.00 Build 0)  -->
<!DOCTYPE svg PUBLIC "-//W3C//DTD SVG 1.1//EN" "http://www.w3.org/Graphics/SVG/1.1/DTD/svg11.dtd">
<svg version="1.1" id="Layer_1" xmlns="http://www.w3.org/2000/svg" xmlns:xlink="http://www.w3.org/1999/xlink" x="0px" y="0px"
	 viewBox="0 14 100 80.8" enable-background="new 0 14 100 80.8" xml:space="preserve">
<path fill="#C99757" d="M92.3,72.4H7.7c-3.8,0-6.8,3.1-6.8,6.8c0,3.8,3.1,6.8,6.8,6.8h84.6c3.8,0,6.8-3.1,6.8-6.8
	C99.1,75.4,96.1,72.4,92.3,72.4z"/>
<path fill="#4C251B" d="M92.3,57.1H7.7c-3.8,0-6.8,3.1-6.8,6.8c0,3.8,3.1,6.8,6.8,6.8h84.6c3.8,0,6.8-3.1,6.8-6.8
	C99.1,60.1,96.1,57.1,92.3,57.1z"/>
<path fill="#C99757" d="M99.1,45.5c0-13.9-22-25.2-49.1-25.2S0.9,31.6,0.9,45.5h0c0,0.1,0,0.2,0,0.2c0,3.8,3.1,6.8,6.8,6.8h84.6
	c3.8,0,6.8-3,6.8-6.8C99.1,45.7,99.1,45.6,99.1,45.5L99.1,45.5z M20.4,42.4c-1.5,0-2.7-1.2-2.7-2.7c0-1.5,1.2-2.7,2.7-2.7
	c1.5,0,2.7,1.2,2.7,2.7C23.1,41.2,21.9,42.4,20.4,42.4z M26.6,35.7L26.6,35.7L26.6,35.7c-1.5,0-2.7-1.2-2.7-2.7
	c0-1.5,1.2-2.7,2.7-2.7h0h0c1.5,0,2.7,1.2,2.7,2.7C29.3,34.5,28,35.7,26.6,35.7z M32.7,42.4c-1.5,0-2.7-1.2-2.7-2.7
	c0-1.5,1.2-2.7,2.7-2.7c1.5,0,2.7,1.2,2.7,2.7C35.4,41.2,34.2,42.4,32.7,42.4z M38.9,35.7L38.9,35.7L38.9,35.7
	c-1.5,0-2.7-1.2-2.7-2.7c0-1.5,1.2-2.7,2.7-2.7h0h0c1.5,0,2.7,1.2,2.7,2.7C41.6,34.5,40.4,35.7,38.9,35.7z M45,42.4L45,42.4
	C45,42.4,45,42.4,45,42.4c-1.5,0-2.7-1.2-2.7-2.7c0-1.5,1.2-2.7,2.7-2.7c0,0,0,0,0,0c0,0,0,0,0,0c1.5,0,2.7,1.2,2.7,2.7
	C47.7,41.2,46.5,42.4,45,42.4z M51.2,35.7C51.2,35.7,51.2,35.7,51.2,35.7C51.2,35.7,51.2,35.7,51.2,35.7c-1.5,0-2.7-1.2-2.7-2.7
	c0-1.5,1.2-2.7,2.7-2.7c0,0,0,0,0,0c0,0,0,0,0,0c1.5,0,2.7,1.2,2.7,2.7C53.9,34.5,52.7,35.7,51.2,35.7z M57.3,42.4
	C57.3,42.4,57.3,42.4,57.3,42.4C57.3,42.4,57.3,42.4,57.3,42.4c-1.5,0-2.7-1.2-2.7-2.7c0-1.5,1.2-2.7,2.7-2.7c0,0,0,0,0,0
	c0,0,0,0,0,0c1.5,0,2.7,1.2,2.7,2.7C60,41.2,58.8,42.4,57.3,42.4z M63.5,35.7C63.5,35.7,63.5,35.7,63.5,35.7
	C63.5,35.7,63.5,35.7,63.5,35.7c-1.5,0-2.7-1.2-2.7-2.7c0-1.5,1.2-2.7,2.7-2.7c0,0,0,0,0,0c0,0,0,0,0,0c1.5,0,2.7,1.2,2.7,2.7
	C66.2,34.5,65,35.7,63.5,35.7z M69.6,42.4c-1.5,0-2.7-1.2-2.7-2.7c0-1.5,1.2-2.7,2.7-2.7c1.5,0,2.7,1.2,2.7,2.7
	C72.3,41.2,71.1,42.4,69.6,42.4z M75.8,35.8c-1.5,0-2.7-1.2-2.7-2.7c0-1.5,1.2-2.7,2.7-2.7c1.5,0,2.7,1.2,2.7,2.7
	C78.5,34.6,77.3,35.8,75.8,35.8z M81.9,42.4c-1.5,0-2.7-1.2-2.7-2.7c0-1.5,1.2-2.7,2.7-2.7c1.5,0,2.7,1.2,2.7,2.7
	C84.6,41.2,83.4,42.4,81.9,42.4z"/>
<path fill="#C99757" d="M42.3,34.7c0-1.5,1.2-2.7,2.7-2.7c0,0,0,0,0,0C43.5,32,42.3,33.2,42.3,34.7c0,1.5,1.2,2.7,2.7,2.7
	c0,0,0,0,0,0C43.5,37.4,42.3,36.2,42.3,34.7z"/>
<path fill="#DDB372" d="M54.6,34.7c0-1.5,1.2-2.7,2.7-2.7c0,0,0,0,0,0C55.8,32,54.6,33.2,54.6,34.7c0,1.5,1.2,2.7,2.7,2.7
	c0,0,0,0,0,0C55.8,37.4,54.6,36.2,54.6,34.7z"/>
<path fill="#DDB372" d="M60.8,28c0-1.5,1.2-2.7,2.7-2.7c0,0,0,0,0,0C62,25.3,60.8,26.5,60.8,28c0,1.5,1.2,2.7,2.7,2.7c0,0,0,0,0,0
	C62,30.7,60.8,29.5,60.8,28z"/>
<path fill="#C99757" d="M45,32L45,32c1.5,0,2.7,1.2,2.7,2.7s-1.2,2.7-2.7,2.7c0,0,0,0,0,0c1.5,0,2.7-1.2,2.7-2.7
	C47.7,33.2,46.5,32,45,32z"/>
<path fill="#DDB372" d="M57.3,32C57.3,32,57.3,32,57.3,32c1.5,0,2.7,1.2,2.7,2.7s-1.2,2.7-2.7,2.7c0,0,0,0,0,0
	c1.5,0,2.7-1.2,2.7-2.7C60,33.2,58.8,32,57.3,32z"/>
<path fill="#C99757" d="M23.9,28c0-1.5,1.2-2.7,2.7-2.7h0C25.1,25.3,23.9,26.5,23.9,28c0,1.5,1.2,2.7,2.7,2.7h0
	C25.1,30.7,23.9,29.5,23.9,28z"/>
<path fill="#C99757" d="M36.2,28c0-1.5,1.2-2.7,2.7-2.7h0C37.4,25.3,36.2,26.5,36.2,28c0,1.5,1.2,2.7,2.7,2.7h0
	C37.4,30.7,36.2,29.5,36.2,28z"/>
<path fill="#C99757" d="M48.5,28c0-1.5,1.2-2.7,2.7-2.7c0,0,0,0,0,0C49.7,25.3,48.5,26.5,48.5,28c0,1.5,1.2,2.7,2.7,2.7c0,0,0,0,0,0
	C49.7,30.7,48.5,29.5,48.5,28z"/>
<path fill="#C99757" d="M26.6,25.3L26.6,25.3c1.5,0,2.7,1.2,2.7,2.7c0,1.5-1.2,2.7-2.7,2.7h0c1.5,0,2.7-1.2,2.7-2.7
	C29.3,26.5,28,25.3,26.6,25.3z"/>
<path fill="#C99757" d="M38.9,25.3L38.9,25.3c1.5,0,2.7,1.2,2.7,2.7c0,1.5-1.2,2.7-2.7,2.7h0c1.5,0,2.7-1.2,2.7-2.7
	S40.4,25.3,38.9,25.3z"/>
<path fill="#C99757" d="M51.2,25.3C51.2,25.3,51.2,25.3,51.2,25.3c1.5,0,2.7,1.2,2.7,2.7c0,1.5-1.2,2.7-2.7,2.7c0,0,0,0,0,0
	c1.5,0,2.7-1.2,2.7-2.7S52.7,25.3,51.2,25.3z"/>
<path fill="#DDB372" d="M63.5,25.3C63.5,25.3,63.5,25.3,63.5,25.3c1.5,0,2.7,1.2,2.7,2.7c0,1.5-1.2,2.7-2.7,2.7c0,0,0,0,0,0
	c1.5,0,2.7-1.2,2.7-2.7C66.2,26.5,65,25.3,63.5,25.3z"/>
<path fill="#FFD429" d="M95.4,55.9c0,0.7-0.6,1.3-1.3,1.3c0,0-11.1,4.3-10.5,7.1c0.6,2.8-7.1-6.7-12.4-5.9
	c-5.3,0.7-65.5-1.2-65.5-1.2c-0.7,0-1.3-0.6-1.3-1.3l0,0c0-0.7,0.6-1.3,1.3-1.3h88.5C94.8,54.6,95.4,55.1,95.4,55.9L95.4,55.9z"/>
</svg>
